<?xml version="1.0" encoding="utf-8"?>
<!-- Generator: Adobe Illustrator 27.1.1, SVG Export Plug-In . SVG Version: 6.00 Build 0)  -->
<svg version="1.1" id="Layer_1" xmlns="http://www.w3.org/2000/svg" xmlns:xlink="http://www.w3.org/1999/xlink" x="0px" y="0px"
	 viewBox="0 0 195.1 206.3" style="enable-background:new 0 0 195.1 206.3;" xml:space="preserve">
<style type="text/css">
	.st0{fill:#EDE0DB;}
	.st1{fill:#6F86FF;}
</style>
<ellipse class="st0" cx="97.6" cy="103.4" rx="93.8" ry="96.8"/>
<g id="Layer_1_00000063633836823547167180000010735788868009457292_">
	<path class="st1" d="M46.3,160.2c-4.7,0-7.9-3.2-6.3-7.3l7.9-23.4c0.8-1.6,3.2-2.4,3.9-0.8l16.6,16.9h113.5
		c6.3-12.9,9.5-27.4,9.5-42c0-11.3-1.6-22.6-5.5-32.3c-0.8-2.4-3.9-3.2-6.3-1.6l-49.7,50c-2.4,2.4-5.5,2.4-7.1,0L78.6,75.5
		c-2.4-2.4-2.4-5.6,0-7.3l49.7-50c2.4-2.4,1.6-5.6-1.6-6.5c-7.9-3.2-18.1-5.6-28.4-5.6c-52,0-94.6,43.6-94.6,96.8
		s42.6,96.8,94.6,96.8c31.5,0,59.1-15.3,76.4-39.5H47.1H46.3z M54.2,111.8L62.9,86c1.6-4,5.5-4.8,8.7-1.6l43.3,43.6
		c2.4,2.4,1.6,7.3-2.4,8.9l-25.2,8.9c-2.4,0.8-4.7,0-7.1-1.6l-24.4-25C54.2,117.5,53.4,114.2,54.2,111.8z"/>
</g>
</svg>
