<?xml version="1.0" encoding="utf-8"?>
<!-- Generator: Adobe Illustrator 27.1.1, SVG Export Plug-In . SVG Version: 6.00 Build 0)  -->
<svg version="1.1" xmlns="http://www.w3.org/2000/svg" xmlns:xlink="http://www.w3.org/1999/xlink" x="0px" y="0px"
	 viewBox="0 0 146 24" style="enable-background:new 0 0 146 24;" xml:space="preserve">
<style type="text/css">
	.st0{fill:#6F86FF;}
	.st1{fill:#EDE0DB;}
	.st2{display:none;}
	.st3{display:inline;fill:#EDE0DB;}
</style>
<g id="Layer_1">
	<g id="Layer_1_00000063633836823547167180000010735788868009457292_">
		<path class="st0" d="M5.5,19.1c-0.6,0-1-0.4-0.8-0.9l1-2.9c0.1-0.2,0.4-0.3,0.5-0.1l2.1,2.1h14.5c0.8-1.6,1.2-3.4,1.2-5.2
			c0-1.4-0.2-2.8-0.7-4c-0.1-0.3-0.5-0.4-0.8-0.2l-6.4,6.2c-0.3,0.3-0.7,0.3-0.9,0L9.6,8.6c-0.3-0.3-0.3-0.7,0-0.9L16,1.5
			c0.3-0.3,0.2-0.7-0.2-0.8c-1-0.4-2.3-0.7-3.6-0.7C5.5,0,0.1,5.4,0.1,12s5.4,12,12.1,12c4,0,7.6-1.9,9.8-4.9H5.6H5.5z M6.5,13.1
			l1.1-3.2c0.2-0.5,0.7-0.6,1.1-0.2l5.5,5.4c0.3,0.3,0.2,0.9-0.3,1.1l-3.2,1.1c-0.3,0.1-0.6,0-0.9-0.2L6.7,14
			C6.5,13.8,6.4,13.4,6.5,13.1z"/>
	</g>
	<g id="Layer_3">
		<path class="st1" d="M41.3,6.9l5.4,7.6V6.8c0-0.5,0.1-0.9,0.3-1.1s0.5-0.4,0.9-0.4s0.7,0.1,1,0.4c0.2,0.3,0.3,0.6,0.3,1.1V17
			c0,1.1-0.5,1.7-1.5,1.7c-0.3,0-0.5,0-0.7-0.1s-0.4-0.2-0.6-0.3c-0.2-0.1-0.3-0.3-0.5-0.5s-0.3-0.4-0.5-0.6l-5.3-7.5v7.6
			c0,0.5-0.1,0.9-0.4,1.1s-0.6,0.4-0.9,0.4c-0.4,0-0.7-0.1-1-0.4c-0.2-0.3-0.4-0.6-0.4-1.1v-10c0-0.4,0.1-0.8,0.2-1
			c0.1-0.3,0.3-0.5,0.6-0.6s0.6-0.3,0.9-0.3c0.3,0,0.5,0,0.6,0.1s0.3,0.2,0.5,0.3c0.1,0.1,0.3,0.3,0.4,0.5C41,6.5,41.1,6.7,41.3,6.9
			z"/>
		<path class="st1" d="M61.8,13.8c0,0.7-0.1,1.4-0.4,2c-0.2,0.6-0.6,1.1-1,1.6c-0.5,0.4-1,0.8-1.6,1s-1.3,0.3-2.1,0.3
			s-1.5-0.1-2.1-0.4c-0.6-0.2-1.2-0.6-1.6-1c-0.5-0.4-0.8-1-1-1.6s-0.4-1.3-0.4-2s0.1-1.4,0.4-2c0.2-0.6,0.6-1.1,1-1.6s1-0.8,1.6-1
			s1.3-0.3,2.1-0.3s1.5,0.1,2.1,0.4c0.6,0.2,1.2,0.6,1.6,1s0.8,1,1,1.6C61.7,12.4,61.8,13.1,61.8,13.8z M59.2,13.8
			c0-1-0.2-1.7-0.7-2.3c-0.5-0.5-1.1-0.8-1.9-0.8c-0.5,0-0.9,0.1-1.3,0.4s-0.7,0.6-0.9,1.1s-0.3,1-0.3,1.7c0,0.6,0.1,1.2,0.3,1.7
			c0.2,0.5,0.5,0.8,0.9,1.1c0.4,0.2,0.8,0.4,1.3,0.4c0.8,0,1.4-0.3,1.9-0.8C59,15.5,59.2,14.8,59.2,13.8z"/>
		<path class="st1" d="M64,9.1h0.3V7.7c0-0.4,0-0.7,0-0.9c0-0.2,0.1-0.4,0.2-0.6s0.2-0.3,0.4-0.4c0.2-0.1,0.4-0.2,0.6-0.2
			c0.3,0,0.6,0.1,0.9,0.3c0.2,0.2,0.3,0.3,0.3,0.6c0,0.2,0.1,0.5,0.1,0.9V9h0.9c0.4,0,0.6,0.1,0.8,0.2c0.2,0.2,0.3,0.4,0.3,0.6
			c0,0.3-0.1,0.6-0.4,0.7s-0.7,0.2-1.2,0.2h-0.5v4.4c0,0.4,0,0.7,0,0.9c0,0.2,0.1,0.4,0.2,0.5s0.3,0.2,0.6,0.2c0.2,0,0.4,0,0.6-0.1
			s0.5-0.1,0.6-0.1c0.2,0,0.4,0.1,0.6,0.2s0.3,0.3,0.3,0.6c0,0.4-0.2,0.7-0.7,0.9c-0.5,0.2-1.1,0.3-2,0.3c-0.8,0-1.4-0.1-1.8-0.4
			s-0.7-0.6-0.8-1.1c-0.1-0.4-0.2-1-0.2-1.8v-4.6h-0.3c-0.4,0-0.7-0.1-0.9-0.2c-0.2-0.2-0.3-0.4-0.3-0.6c0-0.3,0.1-0.5,0.3-0.6
			C63.3,9.2,63.6,9.1,64,9.1z"/>
		<path class="st1" d="M77.9,14.4h-5c0,0.5,0.1,1,0.4,1.4c0.2,0.4,0.5,0.7,0.9,0.9c0.4,0.2,0.8,0.3,1.3,0.3c0.3,0,0.6,0,0.8-0.1
			c0.3-0.1,0.5-0.2,0.7-0.3c0.2-0.1,0.5-0.3,0.7-0.5c0.2-0.2,0.5-0.4,0.8-0.7c0.1-0.1,0.3-0.2,0.6-0.2c0.3,0,0.5,0.1,0.6,0.2
			c0.2,0.1,0.2,0.3,0.2,0.6c0,0.2-0.1,0.5-0.3,0.8c-0.2,0.3-0.5,0.6-0.8,0.8s-0.8,0.5-1.4,0.7s-1.2,0.3-1.9,0.3
			c-1.7,0-2.9-0.4-3.9-1.3c-0.9-0.9-1.4-2.1-1.4-3.6c0-0.7,0.1-1.4,0.3-2c0.2-0.6,0.6-1.1,1-1.6c0.4-0.4,1-0.8,1.6-1
			s1.3-0.3,2.1-0.3c1,0,1.9,0.2,2.6,0.6c0.7,0.4,1.3,0.9,1.6,1.5c0.4,0.6,0.5,1.3,0.5,1.9c0,0.6-0.2,1-0.6,1.2
			C79.1,14.3,78.6,14.4,77.9,14.4z M72.8,13h4.7c-0.1-0.8-0.3-1.4-0.7-1.9s-1-0.6-1.6-0.6s-1.2,0.2-1.6,0.6
			C73.2,11.6,72.9,12.2,72.8,13z"/>
		<path class="st1" d="M97.7,14.6c0,0.8-0.2,1.5-0.6,2.1s-1.1,1.1-1.9,1.5s-1.8,0.5-3,0.5c-1.4,0-2.5-0.2-3.4-0.7
			c-0.6-0.3-1.1-0.8-1.5-1.4s-0.6-1.1-0.6-1.7c0-0.3,0.1-0.6,0.4-0.8c0.2-0.2,0.5-0.3,0.9-0.3c0.3,0,0.5,0.1,0.8,0.3
			c0.2,0.2,0.4,0.4,0.5,0.8c0.2,0.4,0.4,0.8,0.6,1c0.2,0.3,0.5,0.5,0.9,0.7c0.4,0.2,0.9,0.3,1.5,0.3c0.8,0,1.5-0.2,2-0.5
			c0.5-0.4,0.8-0.8,0.8-1.4c0-0.4-0.1-0.8-0.4-1c-0.3-0.3-0.6-0.5-1.1-0.6c-0.4-0.1-1-0.3-1.8-0.5c-1-0.2-1.8-0.5-2.5-0.8
			s-1.2-0.7-1.6-1.2c-0.5-0.6-0.7-1.2-0.7-2c0-0.7,0.2-1.3,0.6-1.9s1-1,1.8-1.3c0.8-0.3,1.7-0.4,2.8-0.4c0.9,0,1.6,0.1,2.2,0.3
			c0.6,0.2,1.1,0.5,1.5,0.8s0.7,0.7,0.9,1c0.2,0.4,0.3,0.7,0.3,1.1c0,0.3-0.1,0.6-0.4,0.8c-0.2,0.2-0.5,0.4-0.9,0.4
			c-0.3,0-0.6-0.1-0.7-0.2c-0.2-0.1-0.3-0.4-0.5-0.7c-0.3-0.5-0.6-0.9-0.9-1.1c-0.4-0.3-0.9-0.4-1.7-0.4c-0.7,0-1.3,0.1-1.8,0.4
			c-0.4,0.3-0.7,0.7-0.7,1.1c0,0.3,0.1,0.5,0.2,0.7c0.2,0.2,0.4,0.4,0.6,0.5s0.5,0.2,0.8,0.3s0.7,0.2,1.3,0.3
			c0.8,0.2,1.5,0.4,2.1,0.6c0.6,0.2,1.2,0.5,1.6,0.8s0.8,0.7,1,1.1C97.6,13.4,97.7,13.9,97.7,14.6z"/>
		<path class="st1" d="M100.1,9.1h0.3V7.7c0-0.4,0-0.7,0-0.9c0-0.2,0.1-0.4,0.2-0.6s0.2-0.3,0.4-0.4c0.2-0.1,0.4-0.2,0.6-0.2
			c0.3,0,0.6,0.1,0.9,0.3c0.2,0.2,0.3,0.3,0.3,0.6c0,0.2,0.1,0.5,0.1,0.9V9h0.9c0.4,0,0.6,0.1,0.8,0.2S105,9.7,105,10
			s-0.1,0.6-0.4,0.7c-0.3,0.1-0.7,0.2-1.2,0.2h-0.5v4.4c0,0.4,0,0.7,0,0.9c0,0.2,0.1,0.4,0.2,0.5s0.3,0.2,0.6,0.2
			c0.2,0,0.4,0,0.6-0.1c0.3,0,0.5-0.1,0.6-0.1c0.2,0,0.4,0.1,0.6,0.2c0.2,0.2,0.2,0.3,0.2,0.6c0,0.4-0.2,0.7-0.7,0.9
			c-0.5,0.2-1.1,0.3-2,0.3c-0.8,0-1.4-0.1-1.8-0.4s-0.7-0.6-0.8-1.1c-0.1-0.4-0.2-1-0.2-1.8v-4.6H100c-0.4,0-0.7-0.1-0.9-0.2
			c-0.2-0.2-0.3-0.4-0.3-0.6c0-0.3,0.1-0.5,0.3-0.6S99.7,9.1,100.1,9.1z"/>
		<path class="st1" d="M113.5,17.4V17c-0.3,0.4-0.6,0.7-1,0.9c-0.3,0.2-0.7,0.4-1.1,0.6c-0.4,0.1-0.9,0.2-1.4,0.2
			c-0.6,0-1.2-0.1-1.7-0.4c-0.5-0.2-0.9-0.6-1.1-1c-0.3-0.5-0.5-1.2-0.5-2.2v-4.8c0-0.5,0.1-0.8,0.3-1.1s0.5-0.4,0.9-0.4
			s0.7,0.1,0.9,0.4c0.2,0.2,0.4,0.6,0.4,1.1v3.9c0,0.6,0.1,1,0.2,1.4s0.3,0.7,0.5,0.9c0.3,0.2,0.6,0.3,1.1,0.3
			c0.4,0,0.8-0.1,1.2-0.4c0.4-0.2,0.7-0.6,0.8-0.9c0.1-0.3,0.2-1.1,0.2-2.2v-2.9c0-0.5,0.1-0.8,0.4-1.1c0.2-0.2,0.6-0.4,0.9-0.4
			c0.4,0,0.7,0.1,0.9,0.4c0.2,0.2,0.3,0.6,0.3,1.1v7c0,0.5-0.1,0.8-0.3,1c-0.2,0.2-0.5,0.3-0.9,0.3s-0.6-0.1-0.9-0.4
			C113.6,18.1,113.5,17.8,113.5,17.4z"/>
		<path class="st1" d="M125.5,17.3v-0.2c-0.3,0.4-0.7,0.7-1,0.9s-0.7,0.4-1.1,0.5s-0.8,0.2-1.3,0.2c-0.6,0-1.2-0.1-1.7-0.4
			c-0.5-0.2-1-0.6-1.4-1c-0.4-0.5-0.7-1-0.9-1.6c-0.2-0.6-0.3-1.3-0.3-2c0-1.5,0.4-2.7,1.2-3.5c0.8-0.8,1.8-1.3,3.1-1.3
			c0.7,0,1.4,0.1,1.9,0.4c0.5,0.2,1,0.6,1.5,1.1V6.8c0-0.5,0.1-0.9,0.3-1.1c0.2-0.3,0.5-0.4,0.9-0.4s0.7,0.1,0.9,0.3
			c0.2,0.2,0.3,0.6,0.3,1v10.6c0,0.5-0.1,0.8-0.3,1c-0.2,0.2-0.5,0.3-0.9,0.3s-0.6-0.1-0.9-0.4C125.7,18.1,125.5,17.8,125.5,17.3z
			 M120.5,13.8c0,0.7,0.1,1.2,0.3,1.7c0.2,0.5,0.5,0.8,0.9,1s0.8,0.3,1.2,0.3c0.5,0,0.9-0.1,1.2-0.3s0.7-0.6,0.9-1
			c0.2-0.5,0.3-1,0.3-1.7c0-0.6-0.1-1.2-0.3-1.7c-0.2-0.5-0.5-0.8-0.9-1.1c-0.4-0.2-0.8-0.4-1.3-0.4s-0.9,0.1-1.3,0.4
			c-0.4,0.3-0.7,0.6-0.9,1.1C120.6,12.6,120.5,13.2,120.5,13.8z"/>
		<path class="st1" d="M131.9,7.8c-0.4,0-0.7-0.1-0.9-0.3c-0.3-0.2-0.4-0.5-0.4-0.9c0-0.3,0.1-0.6,0.4-0.8s0.6-0.3,0.9-0.3
			c0.3,0,0.6,0.1,0.9,0.3c0.3,0.2,0.4,0.5,0.4,0.9s-0.1,0.7-0.4,0.9S132.2,7.8,131.9,7.8z M133.2,10.3v7c0,0.5-0.1,0.8-0.4,1.1
			s-0.6,0.4-0.9,0.4s-0.7-0.1-0.9-0.4s-0.4-0.6-0.4-1.1v-6.9c0-0.5,0.1-0.8,0.4-1.1c0.2-0.2,0.5-0.4,0.9-0.4s0.7,0.1,0.9,0.4
			C133,9.5,133.2,9.8,133.2,10.3z"/>
		<path class="st1" d="M145.5,13.8c0,0.7-0.1,1.4-0.4,2c-0.3,0.6-0.6,1.1-1,1.6c-0.5,0.4-1,0.8-1.6,1s-1.3,0.3-2.1,0.3
			s-1.5-0.1-2.1-0.4c-0.6-0.2-1.2-0.6-1.6-1s-0.8-1-1-1.6s-0.4-1.3-0.4-2s0.1-1.4,0.4-2c0.2-0.6,0.6-1.1,1-1.6s1-0.8,1.6-1
			s1.3-0.3,2.1-0.3s1.5,0.1,2.1,0.4c0.6,0.2,1.2,0.6,1.6,1c0.5,0.4,0.8,1,1,1.6C145.4,12.4,145.5,13.1,145.5,13.8z M142.9,13.8
			c0-1-0.2-1.7-0.7-2.3c-0.5-0.5-1.1-0.8-1.9-0.8c-0.5,0-0.9,0.1-1.3,0.4c-0.4,0.2-0.7,0.6-0.9,1.1s-0.3,1-0.3,1.7
			c0,0.6,0.1,1.2,0.3,1.7c0.2,0.5,0.5,0.8,0.9,1.1c0.4,0.2,0.8,0.4,1.3,0.4c0.8,0,1.4-0.3,1.9-0.8C142.7,15.5,142.9,14.8,142.9,13.8
			z"/>
	</g>
	<g id="Layer_2_00000133526200019202990610000008294994456028252834_" class="st2">
		<path class="st3" d="M45.8,11.1v6h-3.2v-6c0-1.6-0.4-2.3-1.7-2.3s-2,0.7-2,2.3v6h-3.2V6.6h3.2v1c0.8-0.8,1.9-1.2,2.9-1.2
			C44.7,6.5,45.8,7.9,45.8,11.1z M52.4,9.1c-1.3,0-2.4,1.2-2.4,2.9s1.1,2.8,2.4,2.8c1.3,0,2.4-1.2,2.4-2.8
			C54.8,10.2,53.7,9.1,52.4,9.1z M52.4,6.5c3.1,0,5.6,2.3,5.6,5.5c0,3.1-2.5,5.4-5.6,5.4s-5.6-2.3-5.6-5.4
			C46.8,8.8,49.2,6.5,52.4,6.5z M63,12.7c0,0.8,0,2.1,1.2,2.1c0.6,0,0.9-0.2,1.4-0.5v2.6c-0.5,0.3-1.1,0.5-1.7,0.5
			c-2.7,0-3.9-1.2-3.9-4.7V9.2h-1.2V6.6H60v-3h3.2v3h2.5v2.6h-2.5v3.5H63z M78,11.9v0.7h-7.5c0,1.2,1.3,2.1,2.3,2.1s2-0.4,2.5-1.3
			l2.1,2c-0.9,1.2-2.2,2-4.6,2c-3.5,0-5.6-2.3-5.6-5.4s2.1-5.5,5.4-5.5C76,6.5,78,8.7,78,11.9z M70.6,10.6h4.2
			c-0.2-1-0.9-1.5-2.1-1.5S70.8,9.7,70.6,10.6z M86.2,17.2l-3.4-4.4c-0.1,0.1-0.2,0.2-0.4,0.3v4.1h-3.2V1.6h3.2v7.6l3-2.7h4.7
			l-5,4.4c1.6,1.9,3.6,4.4,5.1,6.3H86.2z M101.8,11.9v0.7h-7.6c0,1.2,1.3,2.1,2.3,2.1s2-0.4,2.5-1.3l2.1,2c-0.9,1.2-2.2,2-4.6,2
			c-3.5,0-5.6-2.3-5.6-5.4s2.1-5.5,5.4-5.5S101.8,8.7,101.8,11.9z M94.2,10.6h4.2c-0.2-1-0.9-1.5-2.1-1.5S94.5,9.7,94.2,10.6z
			 M113.6,11.9v0.7h-7.5c0,1.2,1.3,2.1,2.3,2.1s2-0.4,2.5-1.3l2.1,2c-0.9,1.2-2.2,2-4.6,2c-3.5,0-5.6-2.3-5.6-5.4s2.1-5.5,5.4-5.5
			S113.6,8.7,113.6,11.9z M106.1,10.6h4.2c-0.2-1-0.9-1.5-2.1-1.5S106.2,9.7,106.1,10.6z M125.7,11.9c0,3.1-2.1,5.4-5.2,5.4
			c-0.6,0-1.9-0.4-2.4-0.9v5.7h-3.2V6.6h3.2v0.8c0.5-0.5,1.3-0.9,2.2-0.9C123.3,6.5,125.7,8.8,125.7,11.9z M122.5,11.9
			c0-1.7-1.1-3.1-2.4-3.1c-0.8,0-1.6,0.6-2,1.5c-0.2,0.4-0.3,1-0.3,1.6s0.1,1.1,0.3,1.6c0.4,0.9,1.2,1.5,2,1.5
			C121.3,15,122.5,13.6,122.5,11.9z M137.5,11.9v0.7H130c0,1.2,1.3,2.1,2.3,2.1s2-0.4,2.5-1.3l2.1,2c-0.9,1.2-2.2,2-4.6,2
			c-3.5,0-5.6-2.3-5.6-5.4s2.1-5.5,5.4-5.5C135.4,6.5,137.5,8.7,137.5,11.9z M130,10.6h4.2c-0.2-1-0.9-1.5-2.1-1.5
			C130.9,9.1,130.2,9.7,130,10.6z M145.8,6.8l-0.4,2.4c-0.8-0.3-0.9-0.3-1.3-0.3c-1.3,0-2,0.7-2,2.4v6h-3.2V6.6h3.2v0.9
			c0.4-0.7,1.5-1.1,2.2-1.1C144.9,6.5,145.3,6.5,145.8,6.8z"/>
	</g>
</g>
<g id="Layer_2">
</g>
</svg>
