<?xml version="1.0" encoding="utf-8"?>
<!-- Generator: Adobe Illustrator 27.1.1, SVG Export Plug-In . SVG Version: 6.00 Build 0)  -->
<svg version="1.1" id="Layer_1" xmlns="http://www.w3.org/2000/svg" xmlns:xlink="http://www.w3.org/1999/xlink" x="0px" y="0px"
	 viewBox="0 0 146 24" style="enable-background:new 0 0 146 24;" xml:space="preserve">
<style type="text/css">
	.st0{fill:#6F86FF;}
	.st1{fill:#201A18;stroke:#201A18;stroke-width:0.25;stroke-miterlimit:10;}
</style>
<path class="st0" d="M5.4,19.1c-0.6,0-1-0.4-0.8-0.9l1-2.9C5.7,15.1,6,15,6.1,15.2l2.1,2.1h14.4c0.8-1.6,1.2-3.4,1.2-5.2
	c0-1.4-0.2-2.8-0.7-4c-0.1-0.3-0.5-0.4-0.8-0.2L16,14.1c-0.3,0.3-0.7,0.3-0.9,0L9.5,8.6c-0.3-0.3-0.3-0.7,0-0.9l6.3-6.2
	c0.3-0.3,0.2-0.7-0.2-0.8C14.6,0.3,13.3,0,12,0C5.4,0,0,5.4,0,12s5.4,12,12,12c4,0,7.5-1.9,9.7-4.9H5.4L5.4,19.1z M6.4,13.1l1.1-3.2
	c0.2-0.5,0.7-0.6,1.1-0.2l5.5,5.4c0.3,0.3,0.2,0.9-0.3,1.1l-3.2,1.1c-0.3,0.1-0.6,0-0.9-0.2L6.6,14C6.4,13.8,6.3,13.4,6.4,13.1z"/>
<path class="st1" d="M40.9,6.7l5.4,7.6V6.6c0-0.5,0.1-0.9,0.3-1.1s0.5-0.4,0.9-0.4s0.7,0.1,1,0.4c0.2,0.3,0.3,0.6,0.3,1.1v10.2
	c0,1.1-0.5,1.7-1.5,1.7c-0.3,0-0.5,0-0.7-0.1s-0.4-0.2-0.6-0.3c-0.2-0.1-0.3-0.3-0.5-0.5S45.2,17.2,45,17l-5.3-7.5V17
	c0,0.5-0.1,0.9-0.4,1.1s-0.6,0.4-0.9,0.4c-0.4,0-0.7-0.1-1-0.4C37.2,17.8,37,17.5,37,17V7c0-0.4,0.1-0.8,0.2-1
	c0.1-0.3,0.3-0.5,0.6-0.6s0.6-0.3,0.9-0.3c0.3,0,0.5,0,0.6,0.1s0.3,0.2,0.5,0.3c0.1,0.1,0.3,0.3,0.4,0.5C40.6,6.2,40.7,6.4,40.9,6.7
	z"/>
<path class="st1" d="M61.4,13.6c0,0.7-0.1,1.4-0.4,2c-0.2,0.6-0.6,1.1-1,1.6c-0.5,0.4-1,0.8-1.6,1s-1.3,0.3-2.1,0.3
	s-1.5-0.1-2.1-0.4c-0.6-0.2-1.2-0.6-1.6-1c-0.5-0.4-0.8-1-1-1.6s-0.4-1.3-0.4-2s0.1-1.4,0.4-2c0.2-0.6,0.6-1.1,1-1.6s1-0.8,1.6-1
	s1.3-0.3,2.1-0.3s1.5,0.1,2.1,0.4c0.6,0.2,1.2,0.6,1.6,1s0.8,1,1,1.6C61.3,12.2,61.4,12.9,61.4,13.6z M58.8,13.6
	c0-1-0.2-1.7-0.7-2.3c-0.5-0.5-1.1-0.8-1.9-0.8c-0.5,0-0.9,0.1-1.3,0.4S54.2,11.5,54,12s-0.3,1-0.3,1.7c0,0.6,0.1,1.2,0.3,1.7
	s0.5,0.8,0.9,1.1c0.4,0.2,0.8,0.4,1.3,0.4c0.8,0,1.4-0.3,1.9-0.8C58.6,15.3,58.8,14.6,58.8,13.6z"/>
<path class="st1" d="M63.6,8.9h0.3V7.4c0-0.4,0-0.7,0-0.9c0-0.2,0.1-0.4,0.2-0.6c0.1-0.2,0.2-0.3,0.4-0.4c0.2-0.1,0.4-0.2,0.6-0.2
	c0.3,0,0.6,0.1,0.9,0.3c0.2,0.2,0.3,0.3,0.3,0.6c0,0.2,0.1,0.5,0.1,0.9v1.6h0.9c0.4,0,0.6,0.1,0.8,0.2c0.2,0.2,0.3,0.4,0.3,0.6
	c0,0.3-0.1,0.6-0.4,0.7s-0.7,0.2-1.2,0.2h-0.5v4.4c0,0.4,0,0.7,0,0.9s0.1,0.4,0.2,0.5s0.3,0.2,0.6,0.2c0.2,0,0.4,0,0.6-0.1
	s0.5-0.1,0.6-0.1c0.2,0,0.4,0.1,0.6,0.2s0.3,0.3,0.3,0.6c0,0.4-0.2,0.7-0.7,0.9c-0.5,0.2-1.1,0.3-2,0.3c-0.8,0-1.4-0.1-1.8-0.4
	s-0.7-0.6-0.8-1.1c-0.1-0.4-0.2-1-0.2-1.8v-4.6h-0.3c-0.4,0-0.7-0.1-0.9-0.2c-0.2-0.2-0.3-0.4-0.3-0.6c0-0.3,0.1-0.5,0.3-0.6
	C62.9,9,63.2,8.9,63.6,8.9z"/>
<path class="st1" d="M77.5,14.2h-5c0,0.5,0.1,1,0.4,1.4c0.2,0.4,0.5,0.7,0.9,0.9s0.8,0.3,1.3,0.3c0.3,0,0.6,0,0.8-0.1
	c0.3-0.1,0.5-0.2,0.7-0.3c0.2-0.1,0.5-0.3,0.7-0.5c0.2-0.2,0.5-0.4,0.8-0.7c0.1-0.1,0.3-0.2,0.6-0.2c0.3,0,0.5,0.1,0.6,0.2
	c0.2,0.1,0.2,0.3,0.2,0.6c0,0.2-0.1,0.5-0.3,0.8c-0.2,0.3-0.5,0.6-0.8,0.8S77.6,18,77,18.2s-1.2,0.3-1.9,0.3c-1.7,0-2.9-0.4-3.9-1.3
	c-0.9-0.9-1.4-2.1-1.4-3.6c0-0.7,0.1-1.4,0.3-2c0.2-0.6,0.6-1.1,1-1.6c0.4-0.4,1-0.8,1.6-1s1.3-0.3,2.1-0.3c1,0,1.9,0.2,2.6,0.6
	c0.7,0.4,1.3,0.9,1.6,1.5c0.4,0.6,0.5,1.3,0.5,1.9c0,0.6-0.2,1-0.6,1.2C78.7,14.1,78.2,14.2,77.5,14.2z M72.5,12.8h4.7
	c-0.1-0.8-0.3-1.4-0.7-1.9s-1-0.6-1.6-0.6s-1.2,0.2-1.6,0.6C72.8,11.4,72.6,12,72.5,12.8z"/>
<path class="st1" d="M97.4,14.4c0,0.8-0.2,1.5-0.6,2.1s-1.1,1.1-1.9,1.5s-1.8,0.5-3,0.5c-1.4,0-2.5-0.2-3.4-0.7
	c-0.6-0.3-1.1-0.8-1.5-1.4s-0.6-1.1-0.6-1.7c0-0.3,0.1-0.6,0.4-0.8c0.2-0.2,0.5-0.3,0.9-0.3c0.3,0,0.5,0.1,0.8,0.3
	c0.2,0.2,0.4,0.4,0.5,0.8c0.2,0.4,0.4,0.8,0.6,1c0.2,0.3,0.5,0.5,0.9,0.7c0.4,0.2,0.9,0.3,1.5,0.3c0.8,0,1.5-0.2,2-0.5
	c0.5-0.4,0.8-0.8,0.8-1.4c0-0.4-0.1-0.8-0.4-1c-0.3-0.3-0.6-0.5-1.1-0.6c-0.4-0.1-1-0.3-1.8-0.5c-1-0.2-1.8-0.5-2.5-0.8
	s-1.2-0.7-1.6-1.2s-0.6-1.1-0.6-1.9c0-0.7,0.2-1.3,0.6-1.9s1-1,1.8-1.3C90,5.3,90.9,5.2,92,5.2c0.9,0,1.6,0.1,2.2,0.3
	c0.6,0.2,1.1,0.5,1.5,0.8s0.7,0.7,0.9,1c0.2,0.4,0.3,0.7,0.3,1.1c0,0.3-0.1,0.6-0.4,0.8c-0.2,0.2-0.5,0.4-0.9,0.4
	c-0.3,0-0.6-0.1-0.7-0.2c-0.2-0.1-0.3-0.4-0.5-0.7C94,8,93.7,7.6,93.3,7.4C93,7.1,92.4,7,91.6,7c-0.7,0-1.3,0.1-1.8,0.4
	c-0.4,0.3-0.7,0.7-0.7,1.1c0,0.3,0.1,0.5,0.2,0.7c0.2,0.2,0.4,0.4,0.6,0.5s0.5,0.2,0.8,0.3s0.7,0.2,1.3,0.3c0.8,0.2,1.5,0.4,2.1,0.6
	c0.6,0.2,1.2,0.5,1.6,0.8s0.8,0.7,1,1.1C97.2,13.2,97.4,13.7,97.4,14.4z"/>
<path class="st1" d="M99.7,8.9h0.3V7.4c0-0.4,0-0.7,0-0.9c0-0.2,0.1-0.4,0.2-0.6s0.2-0.3,0.4-0.4c0.2-0.1,0.4-0.2,0.6-0.2
	c0.3,0,0.6,0.1,0.9,0.3c0.2,0.2,0.3,0.3,0.3,0.6c0,0.2,0.1,0.5,0.1,0.9v1.6h0.9c0.4,0,0.6,0.1,0.8,0.2s0.3,0.4,0.3,0.6
	c0,0.3-0.1,0.6-0.4,0.7c-0.3,0.1-0.7,0.2-1.2,0.2h-0.5v4.4c0,0.4,0,0.7,0,0.9s0.1,0.4,0.2,0.5s0.3,0.2,0.6,0.2c0.2,0,0.4,0,0.6-0.1
	c0.3,0,0.5-0.1,0.6-0.1c0.2,0,0.4,0.1,0.6,0.2c0.2,0.2,0.2,0.3,0.2,0.6c0,0.4-0.2,0.7-0.7,0.9c-0.5,0.2-1.1,0.3-2,0.3
	c-0.8,0-1.4-0.1-1.8-0.4s-0.7-0.6-0.8-1.1c-0.1-0.4-0.2-1-0.2-1.8v-4.6h-0.3c-0.4,0-0.7-0.1-0.9-0.2c-0.2-0.2-0.3-0.4-0.3-0.6
	c0-0.3,0.1-0.5,0.3-0.6S99.3,8.9,99.7,8.9z"/>
<path class="st1" d="M113.1,17.1v-0.3c-0.3,0.4-0.6,0.7-1,0.9c-0.3,0.2-0.7,0.4-1.1,0.6c-0.4,0.1-0.9,0.2-1.4,0.2
	c-0.6,0-1.2-0.1-1.7-0.4c-0.5-0.2-0.9-0.6-1.1-1c-0.3-0.5-0.5-1.2-0.5-2.2v-4.8c0-0.5,0.1-0.8,0.3-1.1s0.5-0.4,0.9-0.4
	s0.7,0.1,0.9,0.4c0.2,0.2,0.4,0.6,0.4,1.1V14c0,0.6,0.1,1,0.2,1.4s0.3,0.7,0.5,0.9c0.3,0.2,0.6,0.3,1.1,0.3c0.4,0,0.8-0.1,1.2-0.4
	c0.4-0.2,0.7-0.6,0.8-0.9c0.1-0.3,0.2-1.1,0.2-2.2v-2.9c0-0.5,0.1-0.8,0.4-1.1c0.2-0.2,0.6-0.4,0.9-0.4c0.4,0,0.7,0.1,0.9,0.4
	c0.2,0.2,0.3,0.6,0.3,1.1v7c0,0.5-0.1,0.8-0.3,1c-0.2,0.2-0.5,0.3-0.9,0.3s-0.6-0.1-0.9-0.4C113.2,17.9,113.1,17.6,113.1,17.1z"/>
<path class="st1" d="M125.2,17.1v-0.2c-0.3,0.4-0.7,0.7-1,0.9s-0.7,0.4-1.1,0.5s-0.8,0.2-1.3,0.2c-0.6,0-1.2-0.1-1.7-0.4
	c-0.5-0.2-1-0.6-1.4-1c-0.4-0.5-0.7-1-0.9-1.6c-0.2-0.6-0.3-1.3-0.3-2c0-1.5,0.4-2.7,1.2-3.5c0.8-0.8,1.8-1.3,3.1-1.3
	c0.7,0,1.4,0.1,1.9,0.4c0.5,0.2,1,0.6,1.5,1.1V6.6c0-0.5,0.1-0.9,0.3-1.1c0.2-0.3,0.5-0.4,0.9-0.4s0.7,0.1,0.9,0.3
	c0.2,0.2,0.3,0.6,0.3,1V17c0,0.5-0.1,0.8-0.3,1c-0.2,0.2-0.5,0.3-0.9,0.3s-0.6-0.1-0.9-0.4C125.3,17.9,125.2,17.6,125.2,17.1z
	 M120.1,13.6c0,0.7,0.1,1.2,0.3,1.7c0.2,0.5,0.5,0.8,0.9,1c0.4,0.2,0.8,0.3,1.2,0.3c0.5,0,0.9-0.1,1.2-0.3s0.7-0.6,0.9-1
	c0.2-0.5,0.3-1,0.3-1.7c0-0.6-0.1-1.2-0.3-1.7c-0.2-0.5-0.5-0.8-0.9-1.1c-0.4-0.2-0.8-0.4-1.3-0.4s-0.9,0.1-1.3,0.4
	c-0.4,0.3-0.7,0.6-0.9,1.1C120.2,12.4,120.1,13,120.1,13.6z"/>
<path class="st1" d="M131.5,7.6c-0.4,0-0.7-0.1-0.9-0.3c-0.3-0.2-0.4-0.5-0.4-0.9c0-0.3,0.1-0.6,0.4-0.8s0.6-0.3,0.9-0.3
	c0.3,0,0.6,0.1,0.9,0.3c0.3,0.2,0.4,0.5,0.4,0.9s-0.1,0.7-0.4,0.9S131.8,7.6,131.5,7.6z M132.8,10.1v7c0,0.5-0.1,0.8-0.4,1.1
	s-0.6,0.4-0.9,0.4s-0.7-0.1-0.9-0.4s-0.4-0.6-0.4-1.1v-6.9c0-0.5,0.1-0.8,0.4-1.1c0.2-0.2,0.5-0.4,0.9-0.4s0.7,0.1,0.9,0.4
	C132.7,9.3,132.8,9.6,132.8,10.1z"/>
<path class="st1" d="M145.1,13.6c0,0.7-0.1,1.4-0.4,2s-0.6,1.1-1,1.6c-0.5,0.4-1,0.8-1.6,1s-1.3,0.3-2.1,0.3s-1.5-0.1-2.1-0.4
	c-0.6-0.2-1.2-0.6-1.6-1s-0.8-1-1-1.6s-0.4-1.3-0.4-2s0.1-1.4,0.4-2c0.2-0.6,0.6-1.1,1-1.6s1-0.8,1.6-1s1.3-0.3,2.1-0.3
	s1.5,0.1,2.1,0.4c0.6,0.2,1.2,0.6,1.6,1c0.5,0.4,0.8,1,1,1.6C145,12.2,145.1,12.9,145.1,13.6z M142.5,13.6c0-1-0.2-1.7-0.7-2.3
	c-0.5-0.5-1.1-0.8-1.9-0.8c-0.5,0-0.9,0.1-1.3,0.4c-0.4,0.2-0.7,0.6-0.9,1.1s-0.3,1-0.3,1.7c0,0.6,0.1,1.2,0.3,1.7s0.5,0.8,0.9,1.1
	c0.4,0.2,0.8,0.4,1.3,0.4c0.8,0,1.4-0.3,1.9-0.8C142.3,15.3,142.5,14.6,142.5,13.6z"/>
</svg>
